PathFileType	4	(X/Y/Z)	Patient4_TMGait_0pt8_01_left_09.trc.trc
DataRate	CameraRate	NumFrames	NumMarkers	Units	OrigDataRate	OrigDataStartFrame	OrigNumFrames
90.909090909091	90.909090909091	6	33	mm	90.909090909091	124	       141
Frame#	Time	Sacral			L.Shoulder			Chest			R.Shoulder			Neck			R.ASIS			L.ASIS			R.Thigh.Superior			R.Thigh.Lateral			R.Thigh.Inferior			R.Patella			L.Thigh.Superior			L.Thigh.Lateral			L.Thigh.Inferior			L.Patella			L.Shank.Superior			L.Shank.Lateral			L.Shank.Inferior			R.Shank.Superior			R.Shank.Lateral			R.Shank.Inferior			R.Heel			R.Midfoot.Superior			R.Midfoot.Lateral			R.Toe			L.Heel			L.Midfoot.Lateral			L.Midfoot.Superior			L.Toe			L.Elbow			L.Wrist			R.Elbow			R.Wrist			
		X1	Y1	Z1	X2	Y2	Z2	X3	Y3	Z3	X4	Y4	Z4	X5	Y5	Z5	X6	Y6	Z6	X7	Y7	Z7	X8	Y8	Z8	X9	Y9	Z9	X10	Y10	Z10	X11	Y11	Z11	X12	Y12	Z12	X13	Y13	Z13	X14	Y14	Z14	X15	Y15	Z15	X16	Y16	Z16	X17	Y17	Z17	X18	Y18	Z18	X19	Y19	Z19	X20	Y20	Z20	X21	Y21	Z21	X22	Y22	Z22	X23	Y23	Z23	X24	Y24	Z24	X25	Y25	Z25	X26	Y26	Z26	X27	Y27	Z27	X28	Y28	Z28	X29	Y29	Z29	X30	Y30	Z30	X31	Y31	Z31	X32	Y32	Z32	X33	Y33	Z33	

124	10.633000000000	861.471911324285	997.147785217435	520.927037494399	1027.538816993450	1414.817796858014	322.999308752347	1143.160236166061	1346.714280849343	476.224949410194	1075.899303383919	1425.390249965073	654.840351393010	1026.009975451233	1478.173922933247	479.595225410634	1088.379389955515	926.526419417805	631.582684009774	1067.055379932627	939.675839601156	354.830678459934	1073.248905587710	711.878624171015	607.364316355302	959.518415406391	625.974382923792	667.264791977824	1016.147230089469	555.683252367149	589.257271703322	991.198110772512	472.122010869405	593.407491344189	1141.160100548227	763.603826274695	391.660933123580	1098.856371248559	634.259096335688	307.728635642348	1202.579423839726	579.004254416221	372.199379544041	1230.861495032645	515.406393870976	369.804582980274	1217.689145682269	442.485104838546	357.932894130068	1157.719949454338	310.020237742912	306.925418596923	1248.657596140866	215.214686893344	363.038248889861	948.763225341164	391.057120200833	599.501087799187	860.119514021901	299.955447267802	657.989336027232	888.151994964374	200.026549864973	595.802452564396	736.097060602230	44.079002729382	557.915266485424	905.493766854285	96.115378185808	602.940225434424	814.493121157541	36.696078025878	636.529877039025	1023.170857416999	41.360970353939	639.248268032325	1170.684147759431	38.636065257841	400.264039113678	1247.048304750217	41.639720161590	322.161942887536	1317.829819225655	116.828144961091	345.377205967725	1451.727925844117	85.072568349701	323.396022616522	881.797866169609	1090.107152495870	243.876495526491	820.161177453568	839.909523307618	275.943054452186	1222.737113060109	1124.323948165780	776.595635235307	1463.759288953379	1174.840293288082	715.421832190444	
125	10.644000000000	862.097635905642	995.677631254502	517.924150034312	1027.952136710440	1413.632185607456	320.968349118130	1143.323834125989	1345.687669431684	474.455201499119	1075.283159976776	1424.200132817716	652.867441822864	1025.902747673256	1476.815493970935	477.659372234631	1088.852110765922	924.763625214906	629.367447611178	1068.570678893013	938.366899086403	352.722739470824	1073.355454767674	710.001713675321	605.269541444978	959.180679805625	624.495575051061	665.137619688108	1015.502218024132	553.780617917336	587.220323649090	989.655390198400	469.735804389677	591.187624529896	1143.326516857155	762.385783290035	390.228601630406	1099.732884283363	632.511932390845	307.860040276105	1203.651119946497	577.583630371290	371.964462989859	1230.666250507012	512.817474272252	370.457682251089	1216.973250664500	439.483260630298	358.607611465149	1155.125291488372	307.826280268474	308.012127494739	1244.158464582296	211.895398696902	364.904448741865	945.848591148546	389.208855311056	597.656977135135	855.847079109494	299.795912683427	656.850705530417	881.660873161860	199.225266105658	594.859085489259	727.291602204061	44.735258311756	557.996939346103	896.904736535118	96.153432466090	602.751254209937	805.748211763936	36.948030836339	636.502188022295	1014.439825653233	40.993736811927	639.328553161970	1162.364570175045	37.920822635931	401.863450589592	1238.693575487558	40.066527183081	323.613156497823	1311.476358185392	112.644229432419	348.111329169152	1444.602444209850	77.363564469877	325.661700804571	879.660138241543	1090.569867483454	242.357244803441	814.735540035309	841.238788487971	275.166126835018	1224.641543486372	1124.627680802501	773.893496275994	1462.451272551297	1185.226543233772	711.821595888248	
126	10.655000000000	862.797295307195	994.315544751223	514.843411430756	1028.387572308184	1412.604690872815	318.860167497456	1143.511857823843	1344.864319297178	472.626154287426	1074.658964192613	1423.172903846054	650.863178848664	1025.827110237734	1475.648125657611	475.648689642608	1089.426407570510	923.163498380332	627.068994446512	1070.156746465440	937.309338183796	350.542084477514	1073.733968433923	708.298443011329	603.159116434915	959.106082726399	623.115364746721	662.876896976887	1015.309955892842	551.952427182949	585.191378117104	988.619889102912	467.285706403616	588.993104472977	1145.730125977131	761.450616448260	388.618963313563	1100.885709938331	631.192361328619	307.725990762583	1204.994075210924	576.494711923437	371.543527685818	1230.688415842236	510.527450559940	370.895309933450	1216.457166187004	436.787462602656	359.056715490430	1152.729106609425	306.039329222820	308.572758811269	1239.511381404303	208.836323235652	366.420428016658	943.296110954009	387.439821602588	595.816698666221	851.788351323952	299.861489253494	655.681579402606	875.348021954388	198.622897594080	593.961828167144	718.511593790304	45.796715195941	558.137557005627	888.469439469636	96.261496870160	602.627494045883	797.049164846800	37.387338803663	636.498302182225	1005.755102202369	40.570359785636	639.411250455651	1153.446851029033	37.497274094293	403.009120475309	1229.804343666475	38.731302611781	324.651547859844	1304.605006865065	108.709785859832	350.456248295677	1436.948242681715	69.879005341026	327.648930350331	878.234747889130	1090.799330798788	240.681323715512	810.598955768890	842.187555388404	273.951914786513	1225.920173252282	1124.636921239465	771.240578982135	1460.344893610950	1194.485887843465	708.423018261015	
127	10.666000000000	863.567656162080	993.125758753267	511.734833001949	1028.839124720471	1411.797234917771	316.701345604142	1143.724285913279	1344.292687468453	470.755877418017	1074.063699900813	1422.370485173771	648.851467445545	1025.786315811021	1474.738041980939	473.589058660543	1090.079824924067	921.793194674379	624.683992822738	1071.759128086379	936.577011711404	348.281370473359	1074.337216547563	706.844775016194	601.023808434545	959.289999364151	621.899329059779	660.506209013095	1015.578837552110	550.273995077013	583.188263883271	988.148117150804	464.823143920878	586.909412043728	1148.248865850680	760.860037537455	386.844487094116	1102.295753117019	630.377515318937	307.234122739780	1206.512690073689	575.771369062035	370.892635868394	1230.890108290094	508.648905086732	371.038312612050	1216.125284834093	434.506516186345	359.238595183157	1150.618913702808	304.733694472734	308.550500011380	1234.846372268361	206.184293022365	367.539729675834	941.135607969890	385.808170838798	594.045414872210	847.968443992668	300.227110339479	654.520563564066	869.256162253330	198.295837787872	593.156005953394	709.793055579809	47.393796959548	558.350758848836	880.235341279275	96.452368046682	602.593850597123	788.416611111003	38.083016945036	636.531858326115	997.114888138584	40.108150528496	639.487425461359	1144.297731191035	37.331007085206	403.715635559499	1220.736617603939	37.683116303378	325.293453215806	1297.402846798465	105.268835729306	352.330016981659	1429.009373321522	63.167212155697	329.288100015311	877.556234926739	1090.806283467371	238.848716448446	807.795434576042	842.741508727020	272.280054695215	1226.510307554295	1124.332185736445	768.660348638406	1457.517524114375	1202.550772061053	705.250119105252	
128	10.677000000000	864.406233733676	992.169547072095	508.636140152411	1029.296026728405	1411.272110572287	314.521165973729	1143.956437290534	1344.017822699271	468.863354748616	1073.528551038350	1421.850022091634	646.853969263525	1025.776658384815	1474.145755700304	471.509618504669	1090.786394680470	920.720772093131	622.200949264619	1073.330800389540	936.232659138814	345.925025603946	1075.134008322203	705.717935557568	598.847121258687	959.763193879040	620.903609770117	658.053121945819	1016.352911254227	548.820241437200	581.225421779153	988.333728010257	462.404059215010	585.027460827767	1150.763683203012	760.662768049603	384.914531280357	1103.919735087005	630.099111172663	306.334629337299	1208.088594129214	575.412364641850	369.987091727994	1231.199470172717	507.235577496720	370.845374975576	1215.905887725930	432.687374364718	359.152978715536	1148.773938931444	303.933640413762	307.963356431914	1230.188862234211	204.018905439087	368.267881637412	939.437094261467	384.364752580802	592.412128031145	844.454136921569	300.966683474601	653.406510552868	863.458681761187	198.318774289928	592.486263710875	701.197373347900	49.672416524312	558.643970322089	872.264227233752	96.742657244341	602.673845519596	779.884078198983	39.117988394142	636.612103396365	988.515562585288	39.626825003967	639.546870115364	1135.158644412275	37.362974133262	404.038444933415	1211.711726811969	36.933485432872	325.588579493765	1289.966101832863	102.476265315719	353.706692671973	1420.927107704219	57.612712314608	330.535460797130	877.653420038150	1090.616586371118	236.858146285566	806.375542852875	842.905395453184	270.143759435330	1226.336901683942	1123.704476754469	766.170915338367	1454.037511746921	1209.350426377377	702.321454107593	
129	10.688000000000	865.306866094893	991.501003398320	505.564946563487	1029.744053593166	1411.086231269807	312.348582346979	1144.198563065025	1344.077102195630	466.966955480490	1073.071256487255	1421.656523212181	644.887885284706	1025.786348437928	1473.918693443194	469.440281133534	1091.518666697869	920.007390062594	619.603854781922	1074.837946256489	936.319939496542	343.453342887370	1076.116756824428	704.986538306800	596.611161694560	960.590910267702	620.167621829963	655.548577014949	1017.710924016430	547.656465577959	579.316169321308	989.300081197318	460.084147228361	583.435350763296	1153.166541720827	760.874716642350	382.830132641765	1105.666145733539	630.328159178776	305.028858563120	1209.573807668612	575.369176672644	368.826494649357	1231.498919753320	506.271455772127	370.325019022244	1215.668482676783	431.313563077525	358.838041698362	1147.075744981398	303.605385817385	306.903074191346	1225.484720766576	202.351492172642	368.656409297546	938.308570648180	383.149170173584	590.983011034905	841.352070989938	302.148645933281	652.373507682030	858.058412880352	198.761224893984	591.991924986532	692.814853517535	52.788262275446	559.014827169972	864.630974344814	97.155304471852	602.886664069495	771.499691368859	40.589805355453	636.740979978159	979.951713070812	39.145843837983	639.579615938311	1126.158157092927	37.523745636455	404.058760086292	1202.836666768466	36.460341835118	325.609653141552	1282.332561527629	100.387579547741	354.616352547353	1412.767783952202	53.397711958175	331.387324439765	878.545964736517	1090.271476231784	234.704953802356	806.396920352353	842.703976088448	267.549353560437	1225.313636439830	1122.757409697918	763.783519883084	1449.960669230773	1214.809134829759	699.649164873932	
